<svg xmlns="http://www.w3.org/2000/svg" viewBox="0 0 275.945 208.389">
  <defs>
    <style>
      .cls-1 {
        fill: #ffe3fa;
      }
    </style>
  </defs>
  <g id="Group_209" data-name="Group 209" transform="translate(-147.486 -138.724)">
    <path id="Path_298" data-name="Path 298" class="cls-1" d="M219.11,332.64l-14.06,13.2a4.7,4.7,0,0,1-6.64-.21l-49.65-52.88a4.7,4.7,0,0,1,.21-6.64l14.06-13.2a4.7,4.7,0,0,1,6.64.21L219.32,326A4.7,4.7,0,0,1,219.11,332.64Z"/>
    <path id="Path_299" data-name="Path 299" class="cls-1" d="M298.03,208.75l10.83,11.53L259.8,305.67l-28.6,16.78a4.769,4.769,0,0,1-5.89-.85l-50.98-54.3a4.781,4.781,0,0,1-.59-5.76l17.65-28.74,89.44-42.39,9.91,10.55L234.99,253.3a5.453,5.453,0,0,0-.24,7.71h0a5.456,5.456,0,0,0,7.72.23Z"/>
    <path id="Path_300" data-name="Path 300" class="cls-1" d="M274.02,331.19a2.569,2.569,0,0,1-.72-.11,2.423,2.423,0,0,1-1.6-3.03c16.45-53.21,55.53-66,90.02-77.28,23.57-7.71,43.92-14.37,52.18-32.8,8.09-18.05,5.57-36.97-6.93-51.9-15.24-18.2-41.18-26.5-64.55-20.65-42.74,10.68-40.18,51.96-40.15,52.37a2.421,2.421,0,1,1-4.83.35c-.03-.46-2.84-45.77,43.81-57.43,25.13-6.28,53.03,2.66,69.43,22.24,13.74,16.4,16.52,37.17,7.64,56.99-9.14,20.38-31.46,27.68-55.1,35.42-33.37,10.92-71.19,23.29-86.89,74.11A2.412,2.412,0,0,1,274.02,331.19Z"/>
  </g>
</svg>
