<svg xmlns="http://www.w3.org/2000/svg" viewBox="0 0 276 136.77">
  <defs>
    <style>
      .cls-1 {
        fill: #6350b1;
      }
    </style>
  </defs>
  <g id="Group_120" data-name="Group 120" transform="translate(-129.5 -171.8)">
    <path id="Path_181" data-name="Path 181" class="cls-1" d="M144.39,262.91q0-9.015-5.44-13.81a23.5,23.5,0,0,0-9.45-4.65v-8.66q6.945-2.355,9.8-5.23,5.085-4.935,5.08-15.1V196.28a26.448,26.448,0,0,1,1.21-7.66,21.923,21.923,0,0,1,7.28-11.02,25.183,25.183,0,0,1,11.07-4.94,62.719,62.719,0,0,1,11.07-.86v11.45c-3.94.86-6.61,2-8.04,3.43q-3.27,3.285-3.27,11.51v16.58q0,8.01-2.15,12.72-3.645,7.935-14.31,12.87,9.66,3.93,12.99,9.15t3.47,14.44v18.08q0,7.935,3.84,11.44,2.13,2.07,7.47,3.65v11.45l-5.07-.14a30.192,30.192,0,0,1-17.89-6.12q-7.68-5.835-7.68-17v-22.4Z"/>
    <path id="Path_182" data-name="Path 182" class="cls-1" d="M201.67,239.48l72.76-27.88v17.38l-51.84,18.47,51.84,18.53V283.3l-72.76-27.88V239.48Z"/>
    <path id="Path_183" data-name="Path 183" class="cls-1" d="M320,186.67h14.76l-35.71,94.54H284.42Z"/>
    <path id="Path_184" data-name="Path 184" class="cls-1" d="M359.85,308.57V297.12c3.58-1.05,6.08-2.29,7.52-3.72q3.645-3.57,3.79-11.36V263.96q0-10.155,3.95-15.04t12.57-8.54q-9.4-4.575-12.96-10.4t-3.56-15.19V198.2q0-7.935-2.54-10.79t-8.77-4.15V171.81a62.9,62.9,0,0,1,11.05.86,25.911,25.911,0,0,1,11.19,4.94,19.394,19.394,0,0,1,6.67,9.16,30.054,30.054,0,0,1,1.86,9.52v19.18q0,10.23,4.65,15.03,2.865,2.865,10.23,5.3v8.66a24.057,24.057,0,0,0-9.23,4.44q-5.655,4.86-5.65,14.03v22.4q0,10.875-7.53,16.85a29.656,29.656,0,0,1-18.15,6.26Z"/>
  </g>
</svg>
