<svg xmlns="http://www.w3.org/2000/svg" viewBox="0 0 1718.534 1348.402">
  <defs>
    <style>
      .triangle, .ellipse, .ellipse-3 {
        fill: none;
      }

      .triangle {
        stroke: #ffe3fa;
      }

      .triangle, .ellipse {
        stroke-width: 8px;
      }

      .ellipse {
        stroke: #ffeafb;
      }

      .ellipse-2 {
        stroke: none;
      }
    </style>
  </defs>
  <g id="Group_211" data-name="Group 211" transform="translate(-83.786 -1212)">
    <path id="Path_306" data-name="Path 306" class="triangle" d="M1547.1,1222.411l-319.4,322.845L1584,1655.9Z" transform="matrix(0.208, 0.978, -0.978, 0.208, 2620.26, -226.816)"/>
    <path id="Path_307" data-name="Path 307" class="triangle" d="M1547.1,1222.411l-319.4,322.845L1584,1655.9Z" transform="matrix(0.208, 0.978, -0.978, 0.208, 1455.26, 406.184)"/>
    <path id="Path_308" data-name="Path 308" class="triangle" d="M1547.1,1222.411l-319.4,322.845L1584,1655.9Z" transform="matrix(0.208, 0.978, -0.978, 0.208, 2142.26, 661.184)"/>
    <path id="Path_309" data-name="Path 309" class="triangle" d="M1356.3,1222.411,1227.7,1352.4l143.466,44.55Z" transform="matrix(0.208, 0.978, -0.978, 0.208, 1479.227, -226.792)"/>
    <path id="Path_310" data-name="Path 310" class="triangle" d="M1356.3,1222.411,1227.7,1352.4l143.466,44.55Z" transform="matrix(0.208, 0.978, -0.978, 0.208, 2703.228, 279.208)"/>
    <path id="Path_311" data-name="Path 311" class="triangle" d="M1356.3,1222.411,1227.7,1352.4l143.466,44.55Z" transform="matrix(0.208, 0.978, -0.978, 0.208, 2671.228, 912.208)"/>
    <g id="Ellipse_12" data-name="Ellipse 12" class="ellipse" transform="translate(222 1597)">
      <circle class="ellipse-2" cx="35" cy="35" r="35"/>
      <circle class="ellipse-3" cx="35" cy="35" r="31"/>
    </g>
    <g id="Ellipse_13" data-name="Ellipse 13" class="ellipse" transform="translate(1646 2061)">
      <circle class="ellipse-2" cx="35" cy="35" r="35"/>
      <circle class="ellipse-3" cx="35" cy="35" r="31"/>
    </g>
    <g id="Ellipse_14" data-name="Ellipse 14" class="ellipse" transform="translate(1238 1212)">
      <circle class="ellipse-2" cx="35" cy="35" r="35"/>
      <circle class="ellipse-3" cx="35" cy="35" r="31"/>
    </g>
    <g id="Ellipse_15" data-name="Ellipse 15" class="ellipse" transform="translate(534 2485)">
      <circle class="ellipse-2" cx="35" cy="35" r="35"/>
      <circle class="ellipse-3" cx="35" cy="35" r="31"/>
    </g>
  </g>
</svg>
